<svg xmlns="http://www.w3.org/2000/svg" width="2075" height="895" viewBox="0 0 2075 895" fill="none"><path d="M0.966044 308.327C0.966044 308.327 85.9008 200.468 274.077 202.736L749.175 202.695C793.91 186.615 823.06 143.529 821.081 97.1449C819.267 53.9354 790.736 15.591 749.175 0.748047C590.026 0.748047 430.917 0.748047 271.809 0.748047C249.916 1.40773 158.013 6.56154 83.0147 80.1167C-9.67142 171.071 -0.559484 291.876 0.966044 308.327Z" fill="url(#paint0_linear_526_423)"></path><path d="M632.122 541.28C683.66 537.281 724.561 497.122 729.302 448.347C734.456 394.994 695.122 344.281 639.008 335.87C579.966 331.334 516.842 328.531 450.048 328.201C374.349 327.871 303.268 330.799 237.382 335.87C216.519 338.509 185.019 344.941 150.921 362.628C90.0238 394.252 59.4308 441.667 46.5669 462.159C6.61458 525.86 1.41954 588.448 0.966008 618.175C0.966008 618.175 -10.4961 802.929 212.107 882.132C212.107 882.132 19.3136 757.039 155.869 590.633C155.869 590.633 179.989 539.012 306.195 537.858L632.122 541.28Z" fill="url(#paint1_linear_526_423)"></path><path d="M552.96 882.133C602.519 874.052 638.1 829.523 635.214 780.376C632.411 732.878 594.396 693.668 546.074 689.339C462.376 689.339 378.72 689.339 295.022 689.339C284.59 689.339 274.2 689.339 263.769 689.339C259.605 688.473 253.874 686.865 247.524 683.855C226.373 673.795 207.778 652.067 203.325 625.721C197.965 594.22 213.715 561.236 243.113 543.301C228.97 545.321 208.355 549.98 186.132 561.566C172.897 568.493 117.689 599.457 98.1462 664.848C76.8713 736.053 110.557 805.815 151.705 844.613C173.557 865.228 196.563 876.196 212.148 882.092C265.212 885.679 321.739 887.823 381.4 887.823C441.926 887.905 499.236 885.761 552.96 882.133Z" fill="url(#paint2_linear_526_423)"></path><path d="M1179.95 168.267H1005.63V236.215H1148.37V309.399H1005.63V384.191H1179.95V460.55H916.117V91.9082H1179.95V168.267Z" fill="#9C9CCD"></path><path d="M1497.51 293.607V460.549H1411.67V447.397C1393.77 458.982 1370.6 465.827 1344.79 465.827C1276.31 465.827 1227.37 423.689 1227.37 365.76C1227.37 307.831 1276.35 265.694 1344.79 265.694C1370.6 265.694 1393.24 272.538 1411.13 284.124C1407.96 247.264 1383.75 233.575 1347.39 233.575C1317.91 233.575 1286.82 244.625 1265.75 256.747L1238.37 198.818C1263.11 183.563 1311.06 165.133 1362.15 165.133C1444.32 165.133 1497.51 199.89 1497.51 293.607ZM1414.84 364.73C1414.84 341.022 1394.31 324.159 1363.22 324.159C1333.2 324.159 1311.6 341.022 1311.6 364.73C1311.6 388.437 1333.2 405.3 1363.22 405.3C1394.31 405.259 1414.84 388.437 1414.84 364.73Z" fill="#9C9CCD"></path><path d="M1705.56 261.489C1696.61 245.698 1677.64 231.473 1654.47 231.473C1632.87 231.473 1621.28 238.317 1621.28 249.903C1621.28 263.592 1630.77 270.436 1677.64 282.558C1737.68 297.813 1777.71 319.418 1777.71 377.347C1777.71 440.553 1717.14 468.466 1659.75 468.466C1595.51 468.466 1549.66 444.758 1530.74 394.746L1599.72 359.989C1615.51 390.004 1639.22 399.487 1660.82 399.487C1682.43 399.487 1694.51 392.107 1694.51 375.78C1694.51 362.091 1681.85 356.814 1648.7 347.867C1603.92 335.745 1538.62 314.182 1538.12 254.645C1538.66 194.077 1595.51 163.525 1657.15 163.525C1716.65 163.525 1757.75 192.51 1774.58 231.473L1705.56 261.489Z" fill="#9C9CCD"></path><path d="M1986.79 170.906H2074.2V174.081L1968.86 493.741C1937.27 589.066 1888.79 602.754 1812.43 578.511L1831.39 510.563C1863.51 519.51 1882.48 513.738 1891.42 483.722L1898.27 460.55L1795.03 174.04V170.865H1885.07L1936.7 334.633L1986.79 170.906Z" fill="#9C9CCD"></path><path d="M975.077 595.579H816.546V668.269H947.7V741.453H816.546V887.862H727.035V519.221H975.077V595.579Z" fill="#9C9CCD"></path><path d="M1031.4 887.863V492.875H1115.67V887.863H1031.4Z" fill="#9C9CCD"></path><path d="M1163.09 743.021C1163.09 654.004 1225.22 591.334 1311.6 591.334C1397.98 591.334 1460.11 654.004 1460.11 743.021C1460.11 832.037 1397.98 894.708 1311.6 894.708C1225.22 894.708 1163.09 832.037 1163.09 743.021ZM1378.48 743.021C1378.48 699.317 1349.49 667.198 1311.6 667.198C1273.67 667.198 1244.72 699.317 1244.72 743.021C1244.72 786.725 1273.67 818.844 1311.6 818.844C1349.53 818.885 1378.48 786.725 1378.48 743.021Z" fill="#9C9CCD"></path><path d="M1817.7 598.219H1905.65V600.857L1801.91 887.863H1751.9L1692.9 743.556L1633.4 887.863H1583.89L1480.15 600.857V598.219H1568.09L1616.54 749.37L1673.93 598.219H1711.87L1769.26 749.37L1817.7 598.219Z" fill="#9C9CCD"></path><defs><linearGradient id="paint0_linear_526_423" x1="0.0148568" y1="154.569" x2="821.176" y2="154.569" gradientUnits="userSpaceOnUse"><stop stop-color="#BFBDDF"></stop><stop offset="0.4281" stop-color="#787BB5"></stop><stop offset="0.9968" stop-color="#33447C"></stop></linearGradient><linearGradient id="paint1_linear_526_423" x1="0.86252" y1="605.164" x2="729.732" y2="605.164" gradientUnits="userSpaceOnUse"><stop stop-color="#33447C"></stop><stop offset="0.3086" stop-color="#4A558E"></stop><stop offset="0.5441" stop-color="#6A71AE"></stop><stop offset="1" stop-color="#C0BFE0"></stop></linearGradient><linearGradient id="paint2_linear_526_423" x1="91.5464" y1="715.583" x2="635.347" y2="715.583" gradientUnits="userSpaceOnUse"><stop offset="0.00103928" stop-color="#C0BFE0"></stop><stop offset="0.4181" stop-color="#7F7AAA"></stop><stop offset="1" stop-color="#404F84"></stop></linearGradient></defs></svg>